<?xml version="1.0" encoding="utf-8"?>
<!-- Generator: Adobe Illustrator 16.0.0, SVG Export Plug-In . SVG Version: 6.00 Build 0)  -->
<!DOCTYPE svg PUBLIC "-//W3C//DTD SVG 1.1//EN" "http://www.w3.org/Graphics/SVG/1.1/DTD/svg11.dtd">
<svg version="1.1" xmlns="http://www.w3.org/2000/svg" xmlns:xlink="http://www.w3.org/1999/xlink" x="0px" y="0px" width="225px"
	 height="450px" viewBox="0 0 225 450" enable-background="new 0 0 225 450" xml:space="preserve">
<g id="Layer_2">
	<rect x="78.486" y="395.006" fill="#87D3F6" width="67.802" height="22.171"/>
</g>
<g id="Layer_1">
	<g>
		<path fill="none" stroke="#000000" stroke-width="2" stroke-miterlimit="10" d="M146.288,20.187v396.99l4.154,11.807l20.949,9.996
			v6.355H50.942v-5.449l21.167-11.808l6.376-9.996V20.187c0,0,1.876-11.802-7.114-11.055c0.25-4.232,0.25-5.23,0.25-5.23h90.398
			l-0.498,4.982C161.522,8.884,146.288,9.321,146.288,20.187z"/>
		<line fill="none" stroke="#000000" stroke-width="2" stroke-miterlimit="10" x1="71.372" y1="9.132" x2="157.525" y2="9.132"/>
		
			<line fill="none" stroke="#000000" stroke-width="2" stroke-miterlimit="10" x1="78.486" y1="418.082" x2="146.288" y2="418.082"/>
		
			<line fill="none" stroke="#000000" stroke-width="2" stroke-miterlimit="10" x1="71.214" y1="428.576" x2="150.442" y2="428.576"/>
		
			<line fill="none" stroke="#000000" stroke-width="2" stroke-miterlimit="10" x1="50.942" y1="439.886" x2="171.392" y2="439.886"/>
		<polyline fill="none" stroke="#000000" stroke-width="2" stroke-miterlimit="10" points="135.303,428.576 141.545,439.886 
			141.545,445.335 		"/>
		<polyline fill="none" stroke="#000000" stroke-width="2" stroke-miterlimit="10" points="89.352,428.576 83.109,439.886 
			83.109,445.335 		"/>
	</g>
	<g>
		<line fill="none" stroke="#000000" stroke-miterlimit="10" x1="122.595" y1="36.083" x2="146.288" y2="36.083"/>
		<line fill="none" stroke="#000000" stroke-miterlimit="10" x1="122.595" y1="51.334" x2="146.288" y2="51.334"/>
		<line fill="none" stroke="#000000" stroke-miterlimit="10" x1="122.595" y1="66.586" x2="146.288" y2="66.586"/>
		<line fill="none" stroke="#000000" stroke-miterlimit="10" x1="122.595" y1="81.837" x2="146.288" y2="81.837"/>
		<line fill="none" stroke="#000000" stroke-miterlimit="10" x1="122.595" y1="97.089" x2="146.288" y2="97.089"/>
		<line fill="none" stroke="#000000" stroke-miterlimit="10" x1="122.595" y1="112.341" x2="146.288" y2="112.341"/>
		<line fill="none" stroke="#000000" stroke-miterlimit="10" x1="122.595" y1="127.593" x2="146.288" y2="127.593"/>
		<line fill="none" stroke="#000000" stroke-miterlimit="10" x1="122.595" y1="142.845" x2="146.288" y2="142.845"/>
		<line fill="none" stroke="#000000" stroke-miterlimit="10" x1="122.595" y1="158.096" x2="146.288" y2="158.096"/>
		<line fill="none" stroke="#000000" stroke-miterlimit="10" x1="122.595" y1="173.347" x2="146.288" y2="173.347"/>
		<line fill="none" stroke="#000000" stroke-miterlimit="10" x1="122.595" y1="188.599" x2="146.288" y2="188.599"/>
		<line fill="none" stroke="#000000" stroke-miterlimit="10" x1="122.595" y1="203.851" x2="146.288" y2="203.851"/>
		<line fill="none" stroke="#000000" stroke-miterlimit="10" x1="122.595" y1="219.103" x2="146.288" y2="219.103"/>
		<line fill="none" stroke="#000000" stroke-miterlimit="10" x1="122.595" y1="234.354" x2="146.288" y2="234.354"/>
		<line fill="none" stroke="#000000" stroke-miterlimit="10" x1="122.595" y1="249.606" x2="146.288" y2="249.606"/>
		<line fill="none" stroke="#000000" stroke-miterlimit="10" x1="122.595" y1="264.857" x2="146.288" y2="264.857"/>
		<line fill="none" stroke="#000000" stroke-miterlimit="10" x1="122.595" y1="280.11" x2="146.288" y2="280.11"/>
		<line fill="none" stroke="#000000" stroke-miterlimit="10" x1="122.595" y1="295.36" x2="146.288" y2="295.36"/>
		<line fill="none" stroke="#000000" stroke-miterlimit="10" x1="122.595" y1="310.612" x2="146.288" y2="310.612"/>
		<line fill="none" stroke="#000000" stroke-miterlimit="10" x1="122.595" y1="325.864" x2="146.288" y2="325.864"/>
		<line fill="none" stroke="#000000" stroke-miterlimit="10" x1="122.595" y1="341.116" x2="146.288" y2="341.116"/>
		<line fill="none" stroke="#000000" stroke-miterlimit="10" x1="122.595" y1="356.367" x2="146.288" y2="356.367"/>
		<line fill="none" stroke="#000000" stroke-miterlimit="10" x1="122.595" y1="371.619" x2="146.288" y2="371.619"/>
		<line fill="none" stroke="#000000" stroke-miterlimit="10" x1="122.595" y1="386.871" x2="146.288" y2="386.871"/>
		<line fill="none" stroke="#000000" stroke-miterlimit="10" x1="122.595" y1="401.868" x2="146.288" y2="401.868"/>
	</g>
	<g>
		<line fill="none" stroke="#000000" stroke-miterlimit="10" x1="136.943" y1="44.217" x2="146.148" y2="44.217"/>
		<line fill="none" stroke="#000000" stroke-miterlimit="10" x1="136.943" y1="59.469" x2="146.148" y2="59.469"/>
		<line fill="none" stroke="#000000" stroke-miterlimit="10" x1="136.943" y1="74.721" x2="146.148" y2="74.721"/>
		<line fill="none" stroke="#000000" stroke-miterlimit="10" x1="136.943" y1="89.972" x2="146.148" y2="89.972"/>
		<line fill="none" stroke="#000000" stroke-miterlimit="10" x1="136.943" y1="105.224" x2="146.148" y2="105.224"/>
		<line fill="none" stroke="#000000" stroke-miterlimit="10" x1="136.943" y1="120.476" x2="146.148" y2="120.476"/>
		<line fill="none" stroke="#000000" stroke-miterlimit="10" x1="136.943" y1="135.727" x2="146.148" y2="135.727"/>
		<line fill="none" stroke="#000000" stroke-miterlimit="10" x1="136.943" y1="150.979" x2="146.148" y2="150.979"/>
		<line fill="none" stroke="#000000" stroke-miterlimit="10" x1="136.943" y1="166.23" x2="146.148" y2="166.23"/>
		<line fill="none" stroke="#000000" stroke-miterlimit="10" x1="136.943" y1="181.482" x2="146.148" y2="181.482"/>
		<line fill="none" stroke="#000000" stroke-miterlimit="10" x1="136.943" y1="196.734" x2="146.148" y2="196.734"/>
		<line fill="none" stroke="#000000" stroke-miterlimit="10" x1="136.943" y1="211.985" x2="146.148" y2="211.985"/>
		<line fill="none" stroke="#000000" stroke-miterlimit="10" x1="136.943" y1="227.237" x2="146.148" y2="227.237"/>
		<line fill="none" stroke="#000000" stroke-miterlimit="10" x1="136.943" y1="242.489" x2="146.148" y2="242.489"/>
		<line fill="none" stroke="#000000" stroke-miterlimit="10" x1="136.943" y1="257.74" x2="146.148" y2="257.74"/>
		<line fill="none" stroke="#000000" stroke-miterlimit="10" x1="136.943" y1="272.993" x2="146.148" y2="272.993"/>
		<line fill="none" stroke="#000000" stroke-miterlimit="10" x1="136.943" y1="288.244" x2="146.148" y2="288.244"/>
		<line fill="none" stroke="#000000" stroke-miterlimit="10" x1="136.943" y1="303.496" x2="146.148" y2="303.496"/>
		<line fill="none" stroke="#000000" stroke-miterlimit="10" x1="136.943" y1="318.748" x2="146.148" y2="318.748"/>
		<line fill="none" stroke="#000000" stroke-miterlimit="10" x1="136.943" y1="333.999" x2="146.148" y2="333.999"/>
		<line fill="none" stroke="#000000" stroke-miterlimit="10" x1="136.943" y1="349.251" x2="146.148" y2="349.251"/>
		<line fill="none" stroke="#000000" stroke-miterlimit="10" x1="136.943" y1="364.502" x2="146.148" y2="364.502"/>
		<line fill="none" stroke="#000000" stroke-miterlimit="10" x1="136.943" y1="379.755" x2="146.148" y2="379.755"/>
		<line fill="none" stroke="#000000" stroke-miterlimit="10" x1="136.943" y1="395.006" x2="146.148" y2="395.006"/>
		<line fill="none" stroke="#000000" stroke-miterlimit="10" x1="136.943" y1="410.002" x2="146.148" y2="410.002"/>
	</g>
	<g>
		<line fill="none" stroke="#000000" stroke-miterlimit="10" x1="78.486" y1="386.871" x2="90.948" y2="386.871"/>
		<line fill="none" stroke="#000000" stroke-miterlimit="10" x1="78.486" y1="357.894" x2="90.948" y2="357.894"/>
		<line fill="none" stroke="#000000" stroke-miterlimit="10" x1="78.486" y1="327.391" x2="90.948" y2="327.391"/>
		<line fill="none" stroke="#000000" stroke-miterlimit="10" x1="78.486" y1="296.888" x2="90.948" y2="296.888"/>
		<line fill="none" stroke="#000000" stroke-miterlimit="10" x1="78.486" y1="267.911" x2="90.948" y2="267.911"/>
		<line fill="none" stroke="#000000" stroke-miterlimit="10" x1="78.486" y1="237.407" x2="90.948" y2="237.407"/>
		<line fill="none" stroke="#000000" stroke-miterlimit="10" x1="78.486" y1="208.431" x2="90.948" y2="208.431"/>
		<line fill="none" stroke="#000000" stroke-miterlimit="10" x1="78.486" y1="177.928" x2="90.948" y2="177.928"/>
		<line fill="none" stroke="#000000" stroke-miterlimit="10" x1="78.486" y1="146.85" x2="90.948" y2="146.85"/>
		<line fill="none" stroke="#000000" stroke-miterlimit="10" x1="78.486" y1="117.299" x2="90.948" y2="117.299"/>
		<line fill="none" stroke="#000000" stroke-miterlimit="10" x1="78.486" y1="88.132" x2="90.948" y2="88.132"/>
		<line fill="none" stroke="#000000" stroke-miterlimit="10" x1="78.486" y1="57.437" x2="90.948" y2="57.437"/>
		<line fill="none" stroke="#000000" stroke-miterlimit="10" x1="78.486" y1="27.695" x2="90.948" y2="27.695"/>
	</g>
	<text transform="matrix(1 0 0 1 157.5264 349.25)" font-family="'Helvetica'" font-size="18.302">5 in.</text>
	<text transform="matrix(1 0 0 1 157.5264 271.4648)" font-family="'Helvetica'" font-size="18.302">10 in.</text>
	<text transform="matrix(1 0 0 1 158.2451 195.4604)" font-family="'Helvetica'" font-size="18.302">15 in.</text>
	<text transform="matrix(1 0 0 1 158.4365 117.2983)" font-family="'Helvetica'" font-size="18.302">20 in.</text>
	<text transform="matrix(1 0 0 1 158.2461 43.7075)" font-family="'Helvetica'" font-size="18.302">25 in.</text>
	<text transform="matrix(1 0 0 1 14.8599 362.4658)" font-family="'Helvetica'" font-size="18.302">10 cm</text>
	<text transform="matrix(1 0 0 1 14.6528 301.4629)" font-family="'Helvetica'" font-size="18.302">20 cm</text>
	<text transform="matrix(1 0 0 1 14.6528 241.9854)" font-family="'Helvetica'" font-size="18.302">30 cm</text>
	<text transform="matrix(1 0 0 1 14.4468 183.0063)" font-family="'Helvetica'" font-size="18.302">40 cm</text>
	<text transform="matrix(1 0 0 1 14.2397 121.9995)" font-family="'Helvetica'" font-size="18.302">50 cm</text>
	<text transform="matrix(1 0 0 1 14.0327 60.9937)" font-family="'Helvetica'" font-size="18.302">60 cm</text>
</g>
</svg>
