<?xml version="1.0" encoding="utf-8"?>
<!-- Generator: Adobe Illustrator 16.0.0, SVG Export Plug-In . SVG Version: 6.00 Build 0)  -->
<!DOCTYPE svg PUBLIC "-//W3C//DTD SVG 1.1//EN" "http://www.w3.org/Graphics/SVG/1.1/DTD/svg11.dtd">
<svg version="1.1" id="Layer_1" xmlns="http://www.w3.org/2000/svg" xmlns:xlink="http://www.w3.org/1999/xlink" x="0px" y="0px"
	 width="225px" height="594.263px" viewBox="0 -144.263 225 594.263" enable-background="new 0 -144.263 225 594.263"
	 xml:space="preserve">
<g id="Layer_1_1_">
	<g id="Layer_2">
		<path id="pathA" fill="none" d="M0,380.857v-531.358"/>
		<polygon id="A1" fill="#87D3F6" points="79.667,380.857 145.167,380.857 145.167,380.857 		">
		<animateMotion  fill="remove" id="A2" accumulate="none" dur="4s" additive="replace" restart="always" calcMode="paced">
			<mpath  xlink:href="#pathA"></mpath>
		</animateMotion>
		</polygon>
		<rect x="44.333" y="407.697" fill="#FFFFFF" width="131.333" height="42.303"/>
	</g>
	<g>
		<path fill="none" stroke="#000000" stroke-width="2" stroke-miterlimit="10" d="M146.288-118.481v524.98l4.153,15.615
			l20.949,13.22v8.403H50.942v-7.205l21.167-15.614l6.376-13.219v-526.181c0,0,1.876-15.606-7.114-14.617
			c0.25-5.598,0.25-6.917,0.25-6.917h90.398l-0.498,6.588C161.521-133.427,146.288-132.852,146.288-118.481z"/>
		
			<line fill="none" stroke="#000000" stroke-width="2" stroke-miterlimit="10" x1="71.372" y1="-133.099" x2="157.525" y2="-133.099"/>
		
			<line fill="none" stroke="#000000" stroke-width="2" stroke-miterlimit="10" x1="78.486" y1="407.697" x2="146.288" y2="407.697"/>
		
			<line fill="none" stroke="#000000" stroke-width="2" stroke-miterlimit="10" x1="71.214" y1="421.575" x2="150.441" y2="421.575"/>
		
			<line fill="none" stroke="#000000" stroke-width="2" stroke-miterlimit="10" x1="50.942" y1="436.531" x2="171.393" y2="436.531"/>
		<polyline fill="none" stroke="#000000" stroke-width="2" stroke-miterlimit="10" points="135.303,421.575 141.545,436.531 
			141.545,443.736 		"/>
		<polyline fill="none" stroke="#000000" stroke-width="2" stroke-miterlimit="10" points="89.352,421.575 83.109,436.531 
			83.109,443.736 		"/>
	</g>
</g>
<line fill="none" stroke="#000000" stroke-miterlimit="10" x1="122.596" y1="33.234" x2="146.288" y2="33.234"/>
<line fill="none" stroke="#000000" stroke-miterlimit="10" x1="122.596" y1="48.256" x2="146.288" y2="48.256"/>
<line fill="none" stroke="#000000" stroke-miterlimit="10" x1="122.596" y1="63.278" x2="146.288" y2="63.278"/>
<line fill="none" stroke="#000000" stroke-miterlimit="10" x1="122.596" y1="78.3" x2="146.288" y2="78.3"/>
<line fill="none" stroke="#000000" stroke-miterlimit="10" x1="122.596" y1="93.321" x2="146.288" y2="93.321"/>
<line fill="none" stroke="#000000" stroke-miterlimit="10" x1="122.596" y1="108.344" x2="146.288" y2="108.344"/>
<line fill="none" stroke="#000000" stroke-miterlimit="10" x1="122.596" y1="123.366" x2="146.288" y2="123.366"/>
<line fill="none" stroke="#000000" stroke-miterlimit="10" x1="122.596" y1="138.388" x2="146.288" y2="138.388"/>
<line fill="none" stroke="#000000" stroke-miterlimit="10" x1="122.596" y1="153.41" x2="146.288" y2="153.41"/>
<line fill="none" stroke="#000000" stroke-miterlimit="10" x1="122.596" y1="168.432" x2="146.288" y2="168.432"/>
<line fill="none" stroke="#000000" stroke-miterlimit="10" x1="122.596" y1="183.454" x2="146.288" y2="183.454"/>
<line fill="none" stroke="#000000" stroke-miterlimit="10" x1="122.596" y1="198.476" x2="146.288" y2="198.476"/>
<line fill="none" stroke="#000000" stroke-miterlimit="10" x1="122.596" y1="213.499" x2="146.288" y2="213.499"/>
<line fill="none" stroke="#000000" stroke-miterlimit="10" x1="122.596" y1="228.521" x2="146.288" y2="228.521"/>
<line fill="none" stroke="#000000" stroke-miterlimit="10" x1="122.596" y1="243.544" x2="146.288" y2="243.544"/>
<line fill="none" stroke="#000000" stroke-miterlimit="10" x1="122.596" y1="258.564" x2="146.288" y2="258.564"/>
<line fill="none" stroke="#000000" stroke-miterlimit="10" x1="122.596" y1="273.589" x2="146.288" y2="273.589"/>
<line fill="none" stroke="#000000" stroke-miterlimit="10" x1="122.596" y1="288.609" x2="146.288" y2="288.609"/>
<line fill="none" stroke="#000000" stroke-miterlimit="10" x1="122.596" y1="303.632" x2="146.288" y2="303.632"/>
<line fill="none" stroke="#000000" stroke-miterlimit="10" x1="122.596" y1="318.654" x2="146.288" y2="318.654"/>
<line fill="none" stroke="#000000" stroke-miterlimit="10" x1="122.596" y1="333.677" x2="146.288" y2="333.677"/>
<line fill="none" stroke="#000000" stroke-miterlimit="10" x1="122.596" y1="348.697" x2="146.288" y2="348.697"/>
<line fill="none" stroke="#000000" stroke-miterlimit="10" x1="122.596" y1="363.72" x2="146.288" y2="363.72"/>
<line fill="none" stroke="#000000" stroke-miterlimit="10" x1="122.596" y1="378.742" x2="146.288" y2="378.742"/>
<line fill="none" stroke="#000000" stroke-miterlimit="10" x1="122.596" y1="393.514" x2="146.288" y2="393.514"/>
<line fill="none" stroke="#000000" stroke-miterlimit="10" x1="136.943" y1="41.245" x2="146.148" y2="41.245"/>
<line fill="none" stroke="#000000" stroke-miterlimit="10" x1="136.943" y1="56.267" x2="146.148" y2="56.267"/>
<line fill="none" stroke="#000000" stroke-miterlimit="10" x1="136.943" y1="71.29" x2="146.148" y2="71.29"/>
<line fill="none" stroke="#000000" stroke-miterlimit="10" x1="136.943" y1="86.312" x2="146.148" y2="86.312"/>
<line fill="none" stroke="#000000" stroke-miterlimit="10" x1="136.943" y1="101.334" x2="146.148" y2="101.334"/>
<line fill="none" stroke="#000000" stroke-miterlimit="10" x1="136.943" y1="116.356" x2="146.148" y2="116.356"/>
<line fill="none" stroke="#000000" stroke-miterlimit="10" x1="136.943" y1="131.378" x2="146.148" y2="131.378"/>
<line fill="none" stroke="#000000" stroke-miterlimit="10" x1="136.943" y1="146.4" x2="146.148" y2="146.4"/>
<line fill="none" stroke="#000000" stroke-miterlimit="10" x1="136.943" y1="161.422" x2="146.148" y2="161.422"/>
<line fill="none" stroke="#000000" stroke-miterlimit="10" x1="136.943" y1="176.445" x2="146.148" y2="176.445"/>
<line fill="none" stroke="#000000" stroke-miterlimit="10" x1="136.943" y1="191.467" x2="146.148" y2="191.467"/>
<line fill="none" stroke="#000000" stroke-miterlimit="10" x1="136.943" y1="206.489" x2="146.148" y2="206.489"/>
<line fill="none" stroke="#000000" stroke-miterlimit="10" x1="136.943" y1="221.511" x2="146.148" y2="221.511"/>
<line fill="none" stroke="#000000" stroke-miterlimit="10" x1="136.943" y1="236.533" x2="146.148" y2="236.533"/>
<line fill="none" stroke="#000000" stroke-miterlimit="10" x1="136.943" y1="251.556" x2="146.148" y2="251.556"/>
<line fill="none" stroke="#000000" stroke-miterlimit="10" x1="136.943" y1="266.578" x2="146.148" y2="266.578"/>
<line fill="none" stroke="#000000" stroke-miterlimit="10" x1="136.943" y1="281.601" x2="146.148" y2="281.601"/>
<line fill="none" stroke="#000000" stroke-miterlimit="10" x1="136.943" y1="296.622" x2="146.148" y2="296.622"/>
<line fill="none" stroke="#000000" stroke-miterlimit="10" x1="136.943" y1="311.644" x2="146.148" y2="311.644"/>
<line fill="none" stroke="#000000" stroke-miterlimit="10" x1="136.943" y1="326.666" x2="146.148" y2="326.666"/>
<line fill="none" stroke="#000000" stroke-miterlimit="10" x1="136.943" y1="341.688" x2="146.148" y2="341.688"/>
<line fill="none" stroke="#000000" stroke-miterlimit="10" x1="136.943" y1="356.71" x2="146.148" y2="356.71"/>
<line fill="none" stroke="#000000" stroke-miterlimit="10" x1="136.943" y1="371.733" x2="146.148" y2="371.733"/>
<line fill="none" stroke="#000000" stroke-miterlimit="10" x1="136.943" y1="386.755" x2="146.148" y2="386.755"/>
<line fill="none" stroke="#000000" stroke-miterlimit="10" x1="136.943" y1="401.524" x2="146.148" y2="401.524"/>
<line fill="none" stroke="#000000" stroke-miterlimit="10" x1="78.486" y1="378.742" x2="90.948" y2="378.742"/>
<line fill="none" stroke="#000000" stroke-miterlimit="10" x1="78.486" y1="350.2" x2="90.948" y2="350.2"/>
<line fill="none" stroke="#000000" stroke-miterlimit="10" x1="78.486" y1="320.157" x2="90.948" y2="320.157"/>
<line fill="none" stroke="#000000" stroke-miterlimit="10" x1="78.486" y1="290.113" x2="90.948" y2="290.113"/>
<line fill="none" stroke="#000000" stroke-miterlimit="10" x1="78.486" y1="261.573" x2="90.948" y2="261.573"/>
<line fill="none" stroke="#000000" stroke-miterlimit="10" x1="78.486" y1="231.527" x2="90.948" y2="231.527"/>
<line fill="none" stroke="#000000" stroke-miterlimit="10" x1="78.486" y1="202.988" x2="90.948" y2="202.988"/>
<line fill="none" stroke="#000000" stroke-miterlimit="10" x1="78.486" y1="172.944" x2="90.948" y2="172.944"/>
<line fill="none" stroke="#000000" stroke-miterlimit="10" x1="78.486" y1="142.333" x2="90.948" y2="142.333"/>
<line fill="none" stroke="#000000" stroke-miterlimit="10" x1="78.486" y1="113.228" x2="90.948" y2="113.228"/>
<line fill="none" stroke="#000000" stroke-miterlimit="10" x1="78.486" y1="84.499" x2="90.948" y2="84.499"/>
<line fill="none" stroke="#000000" stroke-miterlimit="10" x1="78.486" y1="54.266" x2="90.948" y2="54.266"/>
<line fill="none" stroke="#000000" stroke-miterlimit="10" x1="78.486" y1="24.972" x2="90.948" y2="24.972"/>
<text transform="matrix(1.0153 0 0 1 157.5264 341.6875)" font-family="'Helvetica'" font-size="18.0265">5 in.</text>
<text transform="matrix(1.0153 0 0 1 157.5264 265.0732)" font-family="'Helvetica'" font-size="18.0265">10 in.</text>
<text transform="matrix(1.0153 0 0 1 158.2451 190.2134)" font-family="'Helvetica'" font-size="18.0265">15 in.</text>
<text transform="matrix(1.0153 0 0 1 158.4365 113.228)" font-family="'Helvetica'" font-size="18.0265">20 in.</text>
<text transform="matrix(1.0153 0 0 1 158.2461 40.7446)" font-family="'Helvetica'" font-size="18.0265">25 in.</text>
<text transform="matrix(1.0153 0 0 1 14.8604 354.7051)" font-family="'Helvetica'" font-size="18.0265">10 cm</text>
<text transform="matrix(1.0153 0 0 1 14.6523 294.6201)" font-family="'Helvetica'" font-size="18.0265">20 cm</text>
<text transform="matrix(1.0153 0 0 1 14.6523 236.0381)" font-family="'Helvetica'" font-size="18.0265">30 cm</text>
<text transform="matrix(1.0153 0 0 1 14.4473 177.9478)" font-family="'Helvetica'" font-size="18.0265">40 cm</text>
<text transform="matrix(1.0153 0 0 1 14.2393 117.8579)" font-family="'Helvetica'" font-size="18.0265">50 cm</text>
<text transform="matrix(1.0153 0 0 1 14.0322 57.77)" font-family="'Helvetica'" font-size="18.0265">60 cm</text>
<line fill="none" stroke="#000000" stroke-miterlimit="10" x1="122.596" y1="-118.239" x2="146.288" y2="-118.239"/>
<line fill="none" stroke="#000000" stroke-miterlimit="10" x1="122.596" y1="-103.217" x2="146.288" y2="-103.217"/>
<line fill="none" stroke="#000000" stroke-miterlimit="10" x1="122.596" y1="-88.195" x2="146.288" y2="-88.195"/>
<line fill="none" stroke="#000000" stroke-miterlimit="10" x1="122.596" y1="-73.173" x2="146.288" y2="-73.173"/>
<line fill="none" stroke="#000000" stroke-miterlimit="10" x1="122.596" y1="-58.152" x2="146.288" y2="-58.152"/>
<line fill="none" stroke="#000000" stroke-miterlimit="10" x1="122.596" y1="-43.128" x2="146.288" y2="-43.128"/>
<line fill="none" stroke="#000000" stroke-miterlimit="10" x1="122.596" y1="-28.107" x2="146.288" y2="-28.107"/>
<line fill="none" stroke="#000000" stroke-miterlimit="10" x1="122.596" y1="-13.085" x2="146.288" y2="-13.085"/>
<line fill="none" stroke="#000000" stroke-miterlimit="10" x1="122.596" y1="1.937" x2="146.288" y2="1.937"/>
<line fill="none" stroke="#000000" stroke-miterlimit="10" x1="122.596" y1="16.959" x2="146.288" y2="16.959"/>
<line fill="none" stroke="#000000" stroke-miterlimit="10" x1="136.943" y1="-110.228" x2="146.148" y2="-110.228"/>
<line fill="none" stroke="#000000" stroke-miterlimit="10" x1="136.943" y1="-95.206" x2="146.148" y2="-95.206"/>
<line fill="none" stroke="#000000" stroke-miterlimit="10" x1="136.943" y1="-80.183" x2="146.148" y2="-80.183"/>
<line fill="none" stroke="#000000" stroke-miterlimit="10" x1="136.943" y1="-65.161" x2="146.148" y2="-65.161"/>
<line fill="none" stroke="#000000" stroke-miterlimit="10" x1="136.943" y1="-50.139" x2="146.148" y2="-50.139"/>
<line fill="none" stroke="#000000" stroke-miterlimit="10" x1="136.943" y1="-35.117" x2="146.148" y2="-35.117"/>
<line fill="none" stroke="#000000" stroke-miterlimit="10" x1="136.943" y1="-20.095" x2="146.148" y2="-20.095"/>
<line fill="none" stroke="#000000" stroke-miterlimit="10" x1="136.943" y1="-5.073" x2="146.148" y2="-5.073"/>
<line fill="none" stroke="#000000" stroke-miterlimit="10" x1="136.943" y1="9.95" x2="146.148" y2="9.95"/>
<line fill="none" stroke="#000000" stroke-miterlimit="10" x1="136.943" y1="24.972" x2="146.148" y2="24.972"/>
<text transform="matrix(1.0153 0 0 1 157.5254 -37.2554)" font-family="'Helvetica'" font-size="18.0265">30 in.</text>
<text transform="matrix(1.0153 0 0 1 157.5254 -112.7554)" font-family="'Helvetica'" font-size="18.0265">35 in.</text>
<line fill="none" stroke="#000000" stroke-miterlimit="10" x1="78.486" y1="-2.753" x2="90.948" y2="-2.753"/>
<line fill="none" stroke="#000000" stroke-miterlimit="10" x1="78.486" y1="-31.482" x2="90.948" y2="-31.482"/>
<line fill="none" stroke="#000000" stroke-miterlimit="10" x1="78.486" y1="-61.715" x2="90.948" y2="-61.715"/>
<line fill="none" stroke="#000000" stroke-miterlimit="10" x1="78.486" y1="-91.009" x2="90.948" y2="-91.009"/>
<text transform="matrix(1.0153 0 0 1 14.8604 0.27)" font-family="'Helvetica'" font-size="18.0265">70 cm</text>
<text transform="matrix(1.0153 0 0 1 14.8604 -58.1504)" font-family="'Helvetica'" font-size="18.0265">80 cm</text>
</svg>
